<mxfile host="app.diagrams.net" modified="2023-05-31T17:43:45.556Z" agent="Mozilla/5.0 (Windows NT 10.0; Win64; x64) AppleWebKit/537.36 (KHTML, like Gecko) Chrome/113.0.0.0 Safari/537.36" etag="DqrymlTvdXDKHsYGh_w6" version="21.3.5">
  <diagram id="C5RBs43oDa-KdzZeNtuy" name="Page-1">
    <mxGraphModel dx="1434" dy="792" grid="1" gridSize="10" guides="1" tooltips="1" connect="1" arrows="1" fold="1" page="1" pageScale="1" pageWidth="827" pageHeight="1169" math="0" shadow="0">
      <root>
        <mxCell id="WIyWlLk6GJQsqaUBKTNV-0" />
        <mxCell id="WIyWlLk6GJQsqaUBKTNV-1" parent="WIyWlLk6GJQsqaUBKTNV-0" />
        <mxCell id="5z4EwbuZTq-69db-XEJK-8" style="edgeStyle=orthogonalEdgeStyle;rounded=0;orthogonalLoop=1;jettySize=auto;html=1;exitX=1;exitY=0.5;exitDx=0;exitDy=0;entryX=0;entryY=0.5;entryDx=0;entryDy=0;" edge="1" parent="WIyWlLk6GJQsqaUBKTNV-1" source="5z4EwbuZTq-69db-XEJK-0" target="5z4EwbuZTq-69db-XEJK-7">
          <mxGeometry relative="1" as="geometry" />
        </mxCell>
        <mxCell id="5z4EwbuZTq-69db-XEJK-0" value="Frontend - Client" style="rounded=0;whiteSpace=wrap;html=1;" vertex="1" parent="WIyWlLk6GJQsqaUBKTNV-1">
          <mxGeometry x="33" y="258" width="120" height="60" as="geometry" />
        </mxCell>
        <mxCell id="5z4EwbuZTq-69db-XEJK-12" style="edgeStyle=orthogonalEdgeStyle;rounded=0;orthogonalLoop=1;jettySize=auto;html=1;exitX=1;exitY=0.5;exitDx=0;exitDy=0;entryX=0;entryY=0.5;entryDx=0;entryDy=0;entryPerimeter=0;" edge="1" parent="WIyWlLk6GJQsqaUBKTNV-1" source="5z4EwbuZTq-69db-XEJK-1" target="5z4EwbuZTq-69db-XEJK-2">
          <mxGeometry relative="1" as="geometry" />
        </mxCell>
        <mxCell id="5z4EwbuZTq-69db-XEJK-1" value="UserManagementService" style="rounded=0;whiteSpace=wrap;html=1;" vertex="1" parent="WIyWlLk6GJQsqaUBKTNV-1">
          <mxGeometry x="423" y="120" width="150" height="60" as="geometry" />
        </mxCell>
        <mxCell id="5z4EwbuZTq-69db-XEJK-2" value="PostgreSQL" style="shape=cylinder3;whiteSpace=wrap;html=1;boundedLbl=1;backgroundOutline=1;size=15;" vertex="1" parent="WIyWlLk6GJQsqaUBKTNV-1">
          <mxGeometry x="623" y="100" width="80" height="100" as="geometry" />
        </mxCell>
        <mxCell id="5z4EwbuZTq-69db-XEJK-13" style="edgeStyle=orthogonalEdgeStyle;rounded=0;orthogonalLoop=1;jettySize=auto;html=1;exitX=1;exitY=0.5;exitDx=0;exitDy=0;entryX=0;entryY=0.5;entryDx=0;entryDy=0;entryPerimeter=0;" edge="1" parent="WIyWlLk6GJQsqaUBKTNV-1" source="5z4EwbuZTq-69db-XEJK-3" target="5z4EwbuZTq-69db-XEJK-4">
          <mxGeometry relative="1" as="geometry" />
        </mxCell>
        <mxCell id="5z4EwbuZTq-69db-XEJK-3" value="FileUploadService" style="rounded=0;whiteSpace=wrap;html=1;" vertex="1" parent="WIyWlLk6GJQsqaUBKTNV-1">
          <mxGeometry x="423" y="258" width="150" height="60" as="geometry" />
        </mxCell>
        <mxCell id="5z4EwbuZTq-69db-XEJK-4" value="PostgreSQL" style="shape=cylinder3;whiteSpace=wrap;html=1;boundedLbl=1;backgroundOutline=1;size=15;" vertex="1" parent="WIyWlLk6GJQsqaUBKTNV-1">
          <mxGeometry x="623" y="238" width="80" height="100" as="geometry" />
        </mxCell>
        <mxCell id="5z4EwbuZTq-69db-XEJK-14" style="edgeStyle=orthogonalEdgeStyle;rounded=0;orthogonalLoop=1;jettySize=auto;html=1;exitX=1;exitY=0.5;exitDx=0;exitDy=0;entryX=0;entryY=0.5;entryDx=0;entryDy=0;entryPerimeter=0;" edge="1" parent="WIyWlLk6GJQsqaUBKTNV-1" source="5z4EwbuZTq-69db-XEJK-5" target="5z4EwbuZTq-69db-XEJK-6">
          <mxGeometry relative="1" as="geometry" />
        </mxCell>
        <mxCell id="5z4EwbuZTq-69db-XEJK-5" value="MalwareScanningService" style="rounded=0;whiteSpace=wrap;html=1;" vertex="1" parent="WIyWlLk6GJQsqaUBKTNV-1">
          <mxGeometry x="423" y="390" width="150" height="60" as="geometry" />
        </mxCell>
        <mxCell id="5z4EwbuZTq-69db-XEJK-6" value="Apache Cassandra" style="shape=cylinder3;whiteSpace=wrap;html=1;boundedLbl=1;backgroundOutline=1;size=15;" vertex="1" parent="WIyWlLk6GJQsqaUBKTNV-1">
          <mxGeometry x="623" y="370" width="80" height="100" as="geometry" />
        </mxCell>
        <mxCell id="5z4EwbuZTq-69db-XEJK-9" style="edgeStyle=orthogonalEdgeStyle;rounded=0;orthogonalLoop=1;jettySize=auto;html=1;exitX=1;exitY=0;exitDx=0;exitDy=0;entryX=0;entryY=0.5;entryDx=0;entryDy=0;" edge="1" parent="WIyWlLk6GJQsqaUBKTNV-1" source="5z4EwbuZTq-69db-XEJK-7" target="5z4EwbuZTq-69db-XEJK-1">
          <mxGeometry relative="1" as="geometry" />
        </mxCell>
        <mxCell id="5z4EwbuZTq-69db-XEJK-10" style="edgeStyle=orthogonalEdgeStyle;rounded=0;orthogonalLoop=1;jettySize=auto;html=1;exitX=1;exitY=0.5;exitDx=0;exitDy=0;entryX=0;entryY=0.5;entryDx=0;entryDy=0;" edge="1" parent="WIyWlLk6GJQsqaUBKTNV-1" source="5z4EwbuZTq-69db-XEJK-7" target="5z4EwbuZTq-69db-XEJK-3">
          <mxGeometry relative="1" as="geometry" />
        </mxCell>
        <mxCell id="5z4EwbuZTq-69db-XEJK-11" style="edgeStyle=orthogonalEdgeStyle;rounded=0;orthogonalLoop=1;jettySize=auto;html=1;exitX=1;exitY=1;exitDx=0;exitDy=0;entryX=0;entryY=0.5;entryDx=0;entryDy=0;" edge="1" parent="WIyWlLk6GJQsqaUBKTNV-1" source="5z4EwbuZTq-69db-XEJK-7" target="5z4EwbuZTq-69db-XEJK-5">
          <mxGeometry relative="1" as="geometry" />
        </mxCell>
        <mxCell id="5z4EwbuZTq-69db-XEJK-7" value="API Gateway" style="rounded=0;whiteSpace=wrap;html=1;" vertex="1" parent="WIyWlLk6GJQsqaUBKTNV-1">
          <mxGeometry x="219" y="258" width="120" height="60" as="geometry" />
        </mxCell>
      </root>
    </mxGraphModel>
  </diagram>
</mxfile>
